<?xml version="1.0" encoding="iso-8859-1"?>
<!-- Uploaded to: SVG Repo, www.svgrepo.com, Generator: SVG Repo Mixer Tools -->
<svg version="1.1" id="Layer_1" xmlns="http://www.w3.org/2000/svg" xmlns:xlink="http://www.w3.org/1999/xlink" 
	 viewBox="0 0 512 512" xml:space="preserve">
<polygon style="fill:#A8EAEF;" points="398.975,403.673 290.649,512 15.622,512 15.622,0 398.975,0 "/>
<polygon style="fill:#80CDD8;" points="398.975,403.673 290.649,512 207.299,512 207.299,0 398.975,0 "/>
<polygon style="fill:#5293A9;" points="290.649,512 290.649,403.673 398.975,403.673 "/>
<polygon style="fill:#EEBA7D;" points="191.693,235.539 166.194,330.185 260.84,304.686 442.863,122.663 373.716,53.515 "/>
<polygon style="fill:#E68D2C;" points="166.194,330.185 260.84,304.686 442.863,122.663 408.29,88.089 "/>
<path style="fill:#E06B34;" d="M408.29,88.089l-34.574-34.573L208.98,218.251c-9.548,9.548-9.548,25.027,0,34.573
	c9.548,9.548,25.027,9.548,34.573,0c-9.548,9.548-9.548,25.027,0,34.573c9.548,9.548,25.027,9.548,34.573,0l164.736-164.736
	L408.29,88.089z"/>
<path style="fill:#D1393C;" d="M278.126,287.399c-9.548,9.548-25.027,9.548-34.573,0c-9.548-9.548-9.548-25.027,0-34.573
	L408.29,88.089l34.573,34.573L278.126,287.399z"/>
<path style="fill:#80CDD8;" d="M489.089,41.243L455.136,7.288c-9.718-9.718-25.474-9.718-35.193,0l-26.328,26.328l69.147,69.147
	l26.328-26.328C498.808,66.717,498.808,50.961,489.089,41.243z"/>
<path style="fill:#5293A9;" d="M489.089,41.243l-16.977-16.977c-8.862,8.862-43.924,43.924-43.924,43.924l34.573,34.573
	l26.328-26.328C498.808,66.717,498.808,50.961,489.089,41.243z"/>
<rect x="362.518" y="52.135" transform="matrix(-0.7071 -0.7071 0.7071 -0.7071 664.7116 426.6507)" style="fill:#AAAAAA;" width="116.401" height="47.048"/>
<g>
	
		<rect x="412.186" y="72.707" transform="matrix(-0.7071 -0.7071 0.7071 -0.7071 685.2776 476.3123)" style="fill:#818181;" width="58.2" height="47.048"/>
	<polygon style="fill:#818181;" points="166.194,330.185 217.884,316.258 180.121,278.495 	"/>
</g>
<polygon style="fill:#595959;" points="166.194,330.185 217.884,316.258 199.002,297.377 "/>
</svg>