<svg height="800px" width="800px" version="1.1" id="Layer_1" viewBox="0 0 512 512" xmlns="http://www.w3.org/2000/svg">
  <defs></defs>
  <path style="fill:#E2E7F0;" d="M104,0C86.328,0,72,14.328,72,32v448c0,17.672,14.328,32,32,32h304c17.672,0,32-14.328,32-32V128
	L312,0H104z"></path>
  <g>
    <path style="fill:#9DACBA;" d="M344,128h96L312,0v96C312,113.672,326.328,128,344,128z"></path>
  </g>
  <path style="fill:#C9D5E3;" d="M344,128l75.28,75.28c3.024,3.008,4.72,7.096,4.72,11.36V480c0,8.84-7.16,16-16,16H120
	c-8.84,0-16,7.16-16,16h304c17.672,0,32-14.328,32-32V128H344z"></path>
</svg>