<svg width="800px" height="800px" viewBox="0 0 1024 1024" class="icon" version="1.1" xmlns="http://www.w3.org/2000/svg">
  <path d="M853.333333 256H469.333333l-85.333333-85.333333H170.666667c-46.933333 0-85.333333 38.4-85.333334 85.333333v170.666667h853.333334v-85.333334c0-46.933333-38.4-85.333333-85.333334-85.333333z" style="fill: rgb(76, 152, 12);"></path>
  <path d="M853.333333 256H170.666667c-46.933333 0-85.333333 38.4-85.333334 85.333333v426.666667c0 46.933333 38.4 85.333333 85.333334 85.333333h682.666666c46.933333 0 85.333333-38.4 85.333334-85.333333V341.333333c0-46.933333-38.4-85.333333-85.333334-85.333333z" style="fill: rgb(216, 255, 40); stroke-width: 10px; stroke: rgb(76, 152, 12);"></path>
  <path d="M 521.335 367.185 C 524.654 361.527 530.01 357.353 536.372 355.669 L 536.548 355.618 C 538.609 354.914 540.973 354.512 543.462 354.512 C 547.913 354.512 552.037 355.845 555.507 358.108 L 555.431 358.057 C 560.938 361.552 565.036 366.833 566.947 373.069 L 566.998 373.27 C 567.626 375.231 567.978 377.519 567.978 379.858 C 567.978 384.685 566.47 389.136 563.905 392.807 L 563.955 392.732 L 458.097 576.463 L 534.737 576.463 L 535.466 576.463 C 547.209 576.463 557.342 583.352 562.044 593.335 L 562.12 593.511 C 565.087 598.339 566.822 604.197 566.822 610.458 C 566.822 616.292 565.288 621.773 562.622 626.526 L 562.698 626.35 L 337.73 626.35 C 337.529 626.35 337.302 626.35 337.051 626.35 C 330.186 626.35 323.976 623.559 319.475 619.032 C 314.974 614.632 312.183 608.522 312.183 601.733 C 312.183 601.607 312.183 601.482 312.183 601.381 L 312.183 601.406 C 312.183 601.306 312.183 601.18 312.183 601.054 C 312.183 594.265 314.974 588.155 319.475 583.755 C 323.951 579.229 330.186 576.438 337.051 576.438 L 337.755 576.438 L 337.73 576.438 L 400.993 576.438 L 481.28 436.533 L 456.865 392.807 C 454.35 389.211 452.841 384.736 452.841 379.933 C 452.841 377.57 453.193 375.307 453.872 373.169 L 453.822 373.32 C 455.783 366.883 459.882 361.603 465.288 358.183 L 465.389 358.108 C 468.758 355.87 472.907 354.562 477.357 354.562 C 479.821 354.562 482.21 354.965 484.423 355.719 L 484.272 355.669 C 490.81 357.404 496.165 361.578 499.409 367.109 L 499.485 367.235 L 510.422 386.697 L 521.335 367.185 Z M 391.162 693.234 C 387.365 698.665 381.909 702.739 375.572 704.75 L 375.371 704.8 C 373.334 705.479 370.971 705.882 368.532 705.882 C 364.081 705.882 359.932 704.574 356.437 702.311 L 356.513 702.361 C 350.805 699.093 346.606 693.712 344.971 687.325 L 344.946 687.149 C 344.443 685.188 344.142 682.925 344.142 680.586 C 344.142 675.859 345.349 671.409 347.436 667.536 L 347.36 667.687 L 365.615 637.262 C 369.864 635.728 374.793 634.823 379.922 634.823 C 393.903 634.823 406.324 641.461 414.194 651.771 L 414.27 651.871 L 391.162 693.234 Z M 684.372 576.463 L 685.051 576.463 C 691.916 576.463 698.126 579.254 702.627 583.78 C 707.128 588.18 709.919 594.29 709.919 601.079 L 709.919 601.431 L 709.919 601.406 L 709.919 601.758 C 709.919 608.547 707.128 614.657 702.627 619.058 C 698.151 623.584 691.916 626.375 685.051 626.375 C 684.825 626.375 684.573 626.375 684.347 626.375 L 684.372 626.375 L 649.094 626.375 L 673.434 667.737 C 675.32 671.182 676.427 675.281 676.427 679.656 C 676.427 682.346 675.999 684.961 675.22 687.4 L 675.27 687.224 C 673.309 693.661 669.21 698.942 663.804 702.361 L 663.703 702.437 C 660.334 704.65 656.185 705.982 651.76 705.982 C 649.296 705.982 646.932 705.58 644.719 704.826 L 644.87 704.876 C 638.333 703.141 632.977 698.967 629.733 693.435 L 629.658 693.309 L 538.408 533.943 C 531.544 523.156 527.47 510.006 527.47 495.925 C 527.47 491.298 527.898 486.797 528.753 482.397 L 528.677 482.85 C 530.965 469.699 537.528 458.359 546.857 450.061 L 546.907 450.011 L 619.902 576.538 L 684.372 576.463 Z" style="fill: rgb(76, 152, 12);"></path>
</svg>