<svg width="800px" height="800px" viewBox="0 0 1024 1024" class="icon" version="1.1" xmlns="http://www.w3.org/2000/svg">
  <path d="M853.333333 256H469.333333l-85.333333-85.333333H170.666667c-46.933333 0-85.333333 38.4-85.333334 85.333333v170.666667h853.333334v-85.333334c0-46.933333-38.4-85.333333-85.333334-85.333333z" style="fill: rgb(11, 75, 206);"></path>
  <path d="M853.333333 256H170.666667c-46.933333 0-85.333333 38.4-85.333334 85.333333v426.666667c0 46.933333 38.4 85.333333 85.333334 85.333333h682.666666c46.933333 0 85.333333-38.4 85.333334-85.333333V341.333333c0-46.933333-38.4-85.333333-85.333334-85.333333z" style="fill: rgb(40, 152, 255);"></path>
  <path d="M 705.113 518.952 L 673.098 518.952 C 664.437 518.768 656.754 513.328 653.717 505.217 L 653.616 504.951 C 650.09 497.065 651.7 487.833 657.692 481.597 L 680.313 458.976 C 688.342 450.947 688.342 437.924 680.313 429.875 L 651.782 401.344 C 643.753 393.314 630.709 393.314 622.68 401.344 L 600.059 423.964 C 593.824 429.956 584.591 431.586 576.704 428.041 L 576.44 428.041 C 568.247 425.004 562.765 417.219 562.643 408.476 L 562.643 376.482 C 562.643 365.131 553.432 355.918 542.081 355.918 L 501.689 355.918 C 490.338 355.918 481.126 365.131 481.126 376.482 L 481.126 408.476 C 480.943 417.157 475.501 424.841 467.391 427.877 L 467.125 427.877 C 459.239 431.423 449.987 429.793 443.771 423.802 L 421.15 401.18 C 413.121 393.151 400.079 393.151 392.049 401.18 L 363.518 429.712 C 355.489 437.762 355.489 450.784 363.518 458.813 L 386.139 481.434 C 392.13 487.67 393.741 496.902 390.215 504.788 L 390.215 505.054 C 387.198 513.287 379.434 518.809 370.671 518.952 L 338.655 518.952 C 327.304 518.952 318.093 528.163 318.093 539.514 L 318.093 579.906 C 318.093 591.277 327.304 600.469 338.655 600.469 L 370.671 600.469 C 379.333 600.651 387.015 606.093 390.053 614.204 L 390.053 614.47 C 393.577 622.355 391.967 631.608 385.976 637.824 L 363.355 660.445 C 355.326 668.494 355.326 681.516 363.355 689.546 L 391.887 718.077 C 399.916 726.127 412.957 726.127 420.988 718.077 L 443.608 695.455 C 449.824 689.465 459.076 687.854 466.963 691.38 L 467.228 691.483 C 475.42 694.478 480.943 702.202 481.126 710.924 L 481.126 742.939 C 481.126 754.311 490.338 763.503 501.689 763.503 L 542.081 763.503 C 553.432 763.503 562.643 754.311 562.643 742.939 L 562.643 710.924 C 562.827 702.264 568.267 694.601 576.378 691.544 L 576.644 691.442 C 584.53 687.916 593.762 689.526 599.998 695.517 L 622.619 718.137 C 630.648 726.188 643.691 726.188 651.72 718.137 L 680.252 689.608 C 688.281 681.578 688.281 668.556 680.252 660.506 L 657.63 637.885 C 651.638 631.669 650.029 622.417 653.554 614.53 L 653.657 614.266 C 656.693 606.114 664.397 600.651 673.098 600.469 L 705.113 600.469 C 716.464 600.469 725.677 591.277 725.677 579.906 L 725.677 539.514 C 725.677 528.163 716.464 518.952 705.113 518.952 Z M 521.885 620.848 C 474.809 620.848 445.401 569.9 468.94 529.142 C 492.477 488.383 551.291 488.383 574.83 529.142 C 580.189 538.434 583.023 548.991 583.023 559.71 C 583.023 593.478 555.653 620.848 521.885 620.848 Z" style="fill: rgb(11, 75, 206);"></path>
</svg>