<?xml version="1.0" encoding="iso-8859-1"?>
<!-- Uploaded to: SVG Repo, www.svgrepo.com, Generator: SVG Repo Mixer Tools -->
<svg version="1.1" id="Layer_1" xmlns="http://www.w3.org/2000/svg" xmlns:xlink="http://www.w3.org/1999/xlink" 
	 viewBox="0 0 512 512" xml:space="preserve">
<polygon style="fill:#B9B9B9;" points="478.242,489.495 512,489.495 512,90.022 455.736,56.264 "/>
<polygon style="fill:#DCDCDC;" points="0,90.022 0,489.495 478.242,489.495 478.242,56.264 "/>
<polygon style="fill:#FE5F1A;" points="478.242,22.505 455.736,56.264 478.242,90.022 512,90.022 512,22.505 "/>
<polygon style="fill:#FE834D;" points="360.088,22.505 337.582,56.264 360.088,90.022 478.242,90.022 478.242,22.505 "/>
<polygon style="fill:#02ACAB;" points="326.33,22.505 292.571,56.264 326.33,90.022 360.088,90.022 360.088,22.505 "/>
<rect y="22.505" style="fill:#42C8C6;" width="326.33" height="67.516"/>
<polygon style="fill:#D5F6F5;" points="444.484,123.78 421.978,279.154 444.484,455.736 478.242,455.736 478.242,123.78 "/>
<rect x="33.758" y="123.78" style="fill:#FFFFFF;" width="410.725" height="331.956"/>
<g>
	<path style="fill:#4D4D4D;" d="M331.956,264.896c-4.662,0-8.44-3.778-8.44-8.44v-33.758c0-4.662,3.778-8.44,8.44-8.44
		s8.44,3.778,8.44,8.44v33.758C340.396,261.119,336.618,264.896,331.956,264.896z"/>
	<path style="fill:#4D4D4D;" d="M180.044,264.896c-4.662,0-8.44-3.778-8.44-8.44v-33.758c0-4.662,3.778-8.44,8.44-8.44
		s8.44,3.778,8.44,8.44v33.758C188.484,261.119,184.706,264.896,180.044,264.896z"/>
	<path style="fill:#4D4D4D;" d="M256,365.257c-36.295,0-69.144-21.503-83.689-54.783c-1.867-4.272,0.082-9.247,4.353-11.113
		c4.269-1.869,9.246,0.082,11.113,4.353c11.858,27.132,38.637,44.663,68.223,44.663c29.586,0,56.365-17.532,68.223-44.663
		c1.866-4.27,6.838-6.221,11.113-4.353c4.27,1.866,6.219,6.842,4.353,11.113C325.144,343.753,292.295,365.257,256,365.257z"/>
</g>
<g>
	<circle style="fill:#272727;" cx="436.044" cy="56.264" r="8.44"/>
	<circle style="fill:#272727;" cx="402.286" cy="56.264" r="8.44"/>
	<circle style="fill:#272727;" cx="469.802" cy="56.264" r="8.44"/>
</g>
<g>
	<circle style="fill:#FFC1A6;" cx="388.22" cy="278.967" r="22.505"/>
	<circle style="fill:#FFC1A6;" cx="123.78" cy="278.967" r="22.505"/>
</g>
</svg>