<svg version="1.1" id="_x35_" viewBox="0 0 512 512" xmlns="http://www.w3.org/2000/svg">
  <defs></defs>
  <g transform="matrix(1, 0, 0, 1, 41.227493, 0)">
    <path d="M 29.414 70.375 L 199.488 24.804 L 221.239 105.981 L 38.955 105.981 L 29.414 70.375 Z" style="fill: rgb(192, 65, 65);"></path>
    <path d="M 120.486 19.87 L 296.559 19.87 L 296.559 105.574 L 120.486 105.574 Z" style="fill: rgb(146, 199, 69);"></path>
    <path d="M 258.599 -0.291 L 415.481 79.644 L 400.009 110.01 L 202.398 110.009 L 258.599 -0.291 Z" style="fill: rgb(65, 117, 192);"></path>
    <g>
      <g>
        <path style="fill:#E9E8E8;" d="M406.598,147.564l-0.156,4.978L394.93,448.214c0,34.148-10.89,61.997-37.572,63.71
			C356.736,512,356.036,512,355.336,512H74.832c-2.879,0-5.601-0.311-8.168-0.855c-12.99-2.879-21.625-12.758-26.603-26.603
			c-3.656-10.346-5.367-22.871-5.367-36.328l-11.668-300.65H406.598z"></path>
        <rect y="103.302" style="fill:#F2F2F2;" width="429.545" height="31.351"></rect>
        <rect y="103.302" style="fill:#FDFEFE;" width="429.545" height="3.502"></rect>
        <g>
          <path style="fill:#5D5D5D;" d="M96.597,198.41l30.327-0.958c5.168-0.163,9.47,4.138,9.573,9.573l4.59,242.725
				c0.101,5.357-3.92,9.8-9.015,9.961l-30.327,0.958c-5.169,0.163-9.47-4.138-9.573-9.573l-4.59-242.725
				C87.481,203.014,91.502,198.571,96.597,198.41z"></path>
          <path style="fill:#5D5D5D;" d="M332.993,198.41l-30.327-0.958c-5.169-0.163-9.47,4.138-9.573,9.573l-4.59,242.725
				c-0.101,5.357,3.92,9.8,9.015,9.961l30.327,0.958c5.169,0.163,9.47-4.138,9.573-9.573l4.59-242.725
				C342.109,203.014,338.088,198.571,332.993,198.41z"></path>
          <path style="fill:#5D5D5D;" d="M230.476,197.889h-30.711c-5.03,0-9.108,4.078-9.108,9.107v244.128
				c0,5.029,4.078,9.107,9.108,9.107h30.711c5.03,0,9.108-4.078,9.108-9.107V206.996
				C239.584,201.967,235.506,197.889,230.476,197.889z"></path>
        </g>
      </g>
      <g style="opacity:0.1;">
        <path style="fill:#040000;" d="M407.22,147.564l-0.234,5.523l-11.435,295.127c0,34.384-10.968,62.386-38.194,63.71
			C356.736,512,356.036,512,355.336,512H214.228V147.564H407.22z"></path>
      </g>
    </g>
  </g>
</svg>