<?xml version="1.0" encoding="iso-8859-1"?>

<!DOCTYPE svg PUBLIC "-//W3C//DTD SVG 1.1//EN" "http://www.w3.org/Graphics/SVG/1.1/DTD/svg11.dtd">
<!-- Uploaded to: SVG Repo, www.svgrepo.com, Generator: SVG Repo Mixer Tools -->
<svg version="1.1" id="_x36_" xmlns="http://www.w3.org/2000/svg" xmlns:xlink="http://www.w3.org/1999/xlink" 
	 viewBox="0 0 512 512"  xml:space="preserve">
<g>
	<rect style="fill:#282828;" width="495.397" height="510.737"/>
	<rect y="134.089" style="fill:#2D2D2D;" width="495.397" height="377.911"/>
	<g>
		<path style="fill:#FDFAFC;" d="M233.455,68.603v2.107h27.56v0.169l-24.526,48.798h3.203l24.02-49.135v-1.939H233.455z"/>
		<path style="fill:#FDFAFC;" d="M291.44,92.708v-0.253c7.669-3.287,9.945-8.344,9.945-12.642c0-6.743-5.141-12.051-13.653-12.051
			c-7.585,0-14.58,4.719-14.58,12.894c0,5.394,4.467,9.439,9.524,11.546v0.338c-7.249,2.865-11.799,7.837-11.799,14.496
			c0,7.837,7.248,13.401,16.182,13.401c8.428,0,16.266-5.564,16.266-14.244C303.323,100.377,299.447,95.573,291.44,92.708z
			 M275.764,80.066c0-6.49,5.478-10.282,11.715-10.282c8.512,0,11.125,5.815,11.125,10.198c0,5.983-4.298,9.607-10.451,11.714
			C280.483,89.842,275.764,86.302,275.764,80.066z M286.973,118.497c-7.417,0-13.4-4.888-13.4-12.22
			c0-6.658,5.984-11.124,12.389-12.979c9.439,2.529,14.665,5.985,14.665,13.4C300.626,113.103,295.569,118.497,286.973,118.497z"/>
		<path style="fill:#FDFAFC;" d="M326.332,68.603l-9.608,5.731l1.011,1.855l8.344-4.973h0.169v48.461h2.528V68.603H326.332z"/>
		<path style="fill:#FDFAFC;" d="M360.886,88.241c-2.613,0-3.877,0.253-5.057,0.338l2.865-17.868h19.89v-2.107H356.42l-3.54,22.335
			c1.77-0.338,4.467-0.591,7.67-0.591c10.703,0,15.592,6.068,15.592,13.738c0,8.175-6.321,14.411-14.496,14.411
			c-4.298,0-9.608-2.697-10.788-3.456l-1.433,2.023c2.275,1.518,6.827,3.372,12.136,3.372c9.186,0,17.277-6.574,17.277-16.94
			C378.838,92.202,368.893,88.241,360.886,88.241z"/>
		<path style="fill:#FDFAFC;" d="M392.576,114.705c-1.686,0-2.697,1.433-2.697,3.118c0,1.263,0.843,2.613,2.613,2.613
			c1.77,0,2.781-1.35,2.781-2.782C395.273,115.969,394.177,114.705,392.576,114.705z"/>
		<path style="fill:#FDFAFC;" d="M427.551,101.978V68.603h-1.348l-26.97,33.881v1.602h25.79v15.592h2.528v-15.592h8.344v-2.107
			H427.551z M425.023,79.897v22.081h-22.249v-0.169l18.204-22.588c1.18-1.601,2.36-3.202,4.045-5.983l0.169,0.084
			C425.107,75.514,425.023,77.537,425.023,79.897z"/>
		<path style="fill:#FDFAFC;" d="M457.387,68.603l-9.524,5.731l0.927,1.855l8.428-4.973h0.084v48.461h2.613V68.603H457.387z"/>
	</g>
	<g>
		<path style="fill:#FFFFFF;" d="M74.672,91.023V71.807h-2.95v19.216H52v2.359h19.722v19.384h2.95V93.382h19.722v-2.359H74.672z"/>
	</g>
	<rect x="123.125" y="503.052" style="fill:none;" width="123.14" height="3.784"/>
	<rect x="123.125" y="273.904" style="fill:none;" width="123.14" height="2.703"/>
	<rect x="246.264" y="503.052" style="fill:none;" width="123.14" height="3.784"/>
	<rect x="123.125" y="388.478" style="fill:none;" width="123.14" height="2.704"/>
	<rect x="246.264" y="273.904" style="fill:none;" width="123.14" height="2.703"/>
	<rect x="246.264" y="388.478" style="fill:none;" width="123.14" height="2.704"/>
	<linearGradient id="SVGID_1_" gradientUnits="userSpaceOnUse" x1="369.404" y1="335.5814" x2="495.4036" y2="335.5814">
		<stop  offset="0.0918" style="stop-color:#DC731A"/>
		<stop  offset="0.9227" style="stop-color:#D9532D"/>
	</linearGradient>
	<polygon style="fill:url(#SVGID_1_);" points="369.404,162.031 369.404,248.806 369.404,335.581 369.404,422.357 369.404,509.132 
		495.404,509.132 495.404,422.357 495.404,335.581 495.404,248.806 495.404,162.031 	"/>
	<linearGradient id="SVGID_2_" gradientUnits="userSpaceOnUse" x1="184.6993" y1="509.1337" x2="184.6993" y2="161.9856">
		<stop  offset="0" style="stop-color:#FFFFFF"/>
		<stop  offset="1" style="stop-color:#F8FCFD"/>
	</linearGradient>
	<rect y="161.986" style="fill:url(#SVGID_2_);" width="369.399" height="347.148"/>
	<g>
		<path style="fill:#FFFFFF;" d="M405.976,216.43v2.529h54.614v-2.529H405.976z M433.283,196.035c-2.36,0-4.214,1.77-4.214,3.961
			c0,2.191,1.854,3.961,4.214,3.961c2.36,0,4.298-1.77,4.298-3.961C437.581,197.889,435.811,196.035,433.283,196.035z
			 M433.283,231.432c-2.36,0-4.214,1.77-4.214,3.961c0,2.191,1.854,4.045,4.214,4.045c2.36,0,4.298-1.854,4.298-4.045
			C437.581,233.37,435.811,231.432,433.283,231.432z"/>
	</g>
	<g>
		<path style="fill:#FFFFFF;" d="M458.735,309.982l-1.854-1.771l-21.323,19.974l-21.238-19.974l-1.855,1.771l21.323,19.889
			l-21.323,19.891l1.855,1.77l21.238-19.974l21.323,19.974l1.854-1.77l-21.323-19.891L458.735,309.982z"/>
	</g>
	<g>
		<path style="fill:#FFFFFF;" d="M408.251,440.193v2.445h54.698v-2.445H408.251z M408.251,455.027v2.529h54.698v-2.529H408.251z"/>
	</g>
	<g>
		<g>
			<g>
				<path style="fill:#040000;" d="M63.21,237.922v-30.089h-1.18l-24.273,30.51v1.517h23.177v13.906h2.276V239.86h7.585v-1.938
					H63.21z M60.934,218.032v19.89H40.876v-0.169l16.434-20.311c1.011-1.434,2.191-2.866,3.624-5.395l0.169,0.084
					C61.019,214.07,60.934,215.925,60.934,218.032z"/>
				<path style="fill:#040000;" d="M169.15,225.533c-2.36,0-3.455,0.253-4.551,0.338l2.613-16.099h17.952v-1.938h-19.974
					l-3.203,20.144c1.601-0.338,3.961-0.591,6.911-0.591c9.607,0,13.99,5.562,13.99,12.473c0,7.248-5.731,12.895-13.063,12.895
					c-3.877,0-8.597-2.444-9.692-3.118l-1.264,1.854c2.023,1.349,6.068,3.034,10.956,3.034c8.259,0,15.507-5.899,15.507-15.255
					C185.331,229.156,176.313,225.533,169.15,225.533z"/>
				<path style="fill:#040000;" d="M292.62,224.1c-6.069,0-10.451,3.287-12.642,6.826h-0.169
					c0.842-9.186,7.501-18.963,17.446-21.154c2.107-0.421,3.708-0.505,5.394-0.505v-2.107c-12.305,0-25.368,9.945-25.368,28.318
					c0,12.726,7.164,19.047,15.17,19.047c9.692,0,14.58-7.922,14.58-15.845C307.031,230.336,301.553,224.1,292.62,224.1z
					 M292.788,252.755c-9.692,0-13.063-9.356-13.063-16.856c0-3.708,5.815-10.029,12.389-10.029c6.995,0,12.473,4.466,12.473,12.978
					C304.587,246.856,299.868,252.755,292.788,252.755z"/>
			</g>
			<path style="fill:#040000;" d="M54.697,316.049l-8.596,5.141l0.843,1.602l7.585-4.383h0.084v43.572h2.36v-45.932H54.697z"/>
			<path style="fill:#040000;" d="M162.407,360.043v-0.084l3.455-3.371c12.895-12.052,19.89-19.637,19.89-28.908
				c0-5.055-3.035-12.389-12.895-12.389c-4.804,0-8.765,1.854-11.799,4.552l1.096,1.433c2.023-1.686,5.563-4.214,10.198-4.214
				c8.512,0,10.956,5.815,10.956,11.293c0,10.113-13.4,21.407-19.89,27.981l-4.045,4.214v1.432h27.728v-1.938H162.407z"/>
			<path style="fill:#040000;" d="M293.547,336.866v-0.084c5.815-2.107,9.018-6.152,9.018-10.957
				c0-5.057-3.118-10.535-11.968-10.535c-4.214,0-8.428,1.771-10.619,3.625l1.264,1.602c2.107-1.686,5.478-3.456,9.271-3.456
				c7.079,0,9.608,4.55,9.608,9.017c0,6.827-7.079,9.946-12.642,9.946h-3.034v1.854h2.866c7.417,0,14.749,3.456,14.749,11.546
				c0,4.13-2.613,11.462-12.811,11.462c-4.551,0-8.259-1.854-10.029-3.034l-1.264,1.77c2.023,1.433,6.237,3.119,10.872,3.119
				c11.041,0,15.676-6.827,15.676-13.486C304.503,342.428,299.615,338.046,293.547,336.866z"/>
		</g>
		<g>
			<path style="fill:#040000;" d="M55.288,425.191c-7.417,0-15.255,6.743-15.255,23.936c0,7.331,2.36,23.428,14.328,23.428
				c9.102,0,15.255-7.584,15.255-24.356C69.615,431.765,63.125,425.191,55.288,425.191z M54.613,470.786
				c-9.608,0-12.22-13.821-12.22-22.165c0-12.642,5.225-21.66,12.558-21.66c8.428,0,12.221,8.934,12.221,21.66
				C67.171,460.673,63.547,470.786,54.613,470.786z"/>
		</g>
		<circle style="fill:#040000;" cx="324.558" cy="438.247" r="3.434"/>
	</g>
</g>
</svg>