<svg height="800px" width="800px" version="1.1" id="Layer_1" xmlns="http://www.w3.org/2000/svg" xmlns:xlink="http://www.w3.org/1999/xlink" viewBox="0 0 512 512">
  <path style="fill:#E2E7F0;" d="M104,0C86.328,0,72,14.328,72,32v448c0,17.672,14.328,32,32,32h304c17.672,0,32-14.328,32-32V128
	L312,0H104z"></path>
  <g>
    <path style="fill:#9DACBA;" d="M344,128h96L312,0v96C312,113.672,326.328,128,344,128z"></path>
    <path d="M 261.201 168.964 C 263.245 165.478 266.543 162.908 270.462 161.871 L 270.571 161.839 C 271.84 161.406 273.296 161.158 274.829 161.158 C 277.57 161.158 280.11 161.979 282.247 163.373 L 282.201 163.342 C 285.592 165.494 288.116 168.747 289.293 172.587 L 289.325 172.711 C 289.711 173.919 289.928 175.328 289.928 176.769 C 289.928 179.742 288.999 182.483 287.419 184.744 L 287.45 184.698 L 222.253 297.856 L 269.455 297.856 L 269.904 297.856 C 277.137 297.856 283.378 302.098 286.273 308.247 L 286.32 308.356 C 288.148 311.329 289.216 314.937 289.216 318.793 C 289.216 322.386 288.272 325.761 286.63 328.689 L 286.676 328.581 L 148.12 328.581 C 147.997 328.581 147.857 328.581 147.702 328.581 C 143.474 328.581 139.649 326.862 136.877 324.073 C 134.106 321.364 132.386 317.601 132.386 313.42 C 132.386 313.342 132.386 313.265 132.386 313.203 L 132.386 313.218 C 132.386 313.156 132.386 313.079 132.386 313.001 C 132.386 308.82 134.106 305.056 136.877 302.347 C 139.634 299.559 143.474 297.84 147.702 297.84 L 148.135 297.84 L 148.12 297.84 L 187.083 297.84 L 236.532 211.674 L 221.495 184.744 C 219.945 182.529 219.016 179.773 219.016 176.815 C 219.016 175.36 219.233 173.966 219.651 172.649 L 219.621 172.742 C 220.828 168.778 223.353 165.526 226.682 163.42 L 226.745 163.373 C 228.82 161.995 231.374 161.189 234.115 161.189 C 235.633 161.189 237.104 161.438 238.468 161.902 L 238.374 161.871 C 242.401 162.939 245.699 165.51 247.697 168.917 L 247.744 168.995 L 254.479 180.981 L 261.201 168.964 Z M 181.029 369.774 C 178.69 373.119 175.33 375.628 171.427 376.866 L 171.303 376.897 C 170.049 377.316 168.594 377.564 167.091 377.564 C 164.35 377.564 161.794 376.758 159.642 375.365 L 159.688 375.395 C 156.173 373.383 153.587 370.068 152.58 366.135 L 152.565 366.026 C 152.255 364.819 152.07 363.425 152.07 361.984 C 152.07 359.073 152.813 356.332 154.099 353.947 L 154.052 354.04 L 165.294 335.302 C 167.911 334.356 170.947 333.799 174.106 333.799 C 182.717 333.799 190.367 337.888 195.214 344.238 L 195.261 344.299 L 181.029 369.774 Z M 361.614 297.856 L 362.032 297.856 C 366.26 297.856 370.085 299.574 372.857 302.362 C 375.629 305.072 377.348 308.835 377.348 313.016 L 377.348 313.233 L 377.348 313.218 L 377.348 313.435 C 377.348 317.616 375.629 321.379 372.857 324.09 C 370.1 326.877 366.26 328.597 362.032 328.597 C 361.893 328.597 361.738 328.597 361.599 328.597 L 361.614 328.597 L 339.887 328.597 L 354.877 354.071 C 356.039 356.192 356.721 358.717 356.721 361.412 C 356.721 363.068 356.457 364.678 355.977 366.181 L 356.008 366.072 C 354.8 370.037 352.276 373.289 348.947 375.395 L 348.884 375.442 C 346.809 376.805 344.254 377.625 341.529 377.625 C 340.011 377.625 338.555 377.377 337.192 376.913 L 337.285 376.944 C 333.259 375.876 329.96 373.305 327.962 369.898 L 327.916 369.82 L 271.716 271.669 C 267.489 265.024 264.979 256.926 264.979 248.253 C 264.979 245.404 265.244 242.631 265.77 239.922 L 265.723 240.2 C 267.132 232.101 271.174 225.117 276.92 220.006 L 276.95 219.976 L 321.907 297.902 L 361.614 297.856 Z" style="fill: rgb(157, 172, 186);"></path>
  </g>
  <path style="fill:#C9D5E3;" d="M344,128l75.28,75.28c3.024,3.008,4.72,7.096,4.72,11.36V480c0,8.84-7.16,16-16,16H120
	c-8.84,0-16,7.16-16,16h304c17.672,0,32-14.328,32-32V128H344z"></path>
</svg>